<?xml version="1.0" standalone="no"?>
<svg viewBox="0 0 200 200" xmlns="http://www.w3.org/2000/svg">
  <path fill="#FF0066" d="M46.2,-75C58.2,-64.2,65,-48.5,72,-33C79,-17.4,86.1,-2,83.7,11.7C81.3,25.5,69.3,37.6,56.8,45.8C44.4,54.1,31.4,58.4,19,59.9C6.6,61.4,-5.3,60,-18.6,58.4C-31.8,56.7,-46.4,54.8,-53.8,46.5C-61.2,38.2,-61.4,23.5,-65.2,8.3C-69,-6.9,-76.4,-22.6,-73.7,-35.8C-71,-49.1,-58.2,-59.8,-44.2,-69.7C-30.2,-79.6,-15.1,-88.5,1,-90.1C17.1,-91.6,34.2,-85.8,46.2,-75Z" transform="translate(100 100)" />
</svg>
